<?xml version="1.0" standalone="no"?>
<!DOCTYPE svg PUBLIC "-//W3C//DTD SVG 20010904//EN"
 "http://www.w3.org/TR/2001/REC-SVG-20010904/DTD/svg10.dtd">
<svg version="1.0" xmlns="http://www.w3.org/2000/svg"
 width="16.000000pt" height="16.000000pt" viewBox="0 0 16.000000 16.000000"
 preserveAspectRatio="xMidYMid meet">
<metadata>
Created by potrace 1.11, written by Peter Selinger 2001-2013
</metadata>
<g transform="translate(0.000000,16.000000) scale(0.002286,-0.002286)"
fill="#000000" stroke="none">
<path d="M1375 6118 c-229 -33 -427 -215 -481 -444 -15 -63 -16 -265 -18
-2159 -2 -1738 0 -2103 12 -2165 40 -219 220 -407 442 -461 83 -20 4211 -21
4320 -1 218 40 397 208 456 427 18 67 19 147 18 2190 l0 2120 -23 75 c-65 213
-237 372 -453 416 -44 9 -4210 11 -4273 2z m2710 -1453 l0 -580 570 -1 c314
-1 576 -2 583 -3 9 -1 12 -124 12 -581 0 -457 -3 -580 -12 -581 -7 -1 -269 -2
-583 -3 l-570 -1 0 -583 0 -582 -582 0 c-321 0 -583 3 -584 8 0 4 -2 266 -2
582 l-2 575 -575 2 c-316 0 -578 2 -582 2 -10 1 -10 1161 0 1162 4 1 266 2
582 3 l575 1 2 575 c0 316 1 578 2 583 1 4 263 6 583 5 l582 -3 1 -580z"/>
</g>
</svg>
